<svg xmlns="http://www.w3.org/2000/svg" viewBox="295.9 122.9 736.1 736.1" shape-rendering="geometricPrecision"><path d="M444.62,827.53C439.72,825.78 433.32,819.71 430.90,814.50C429.22,810.89 429.04,807.62 429.02,780.95L429.00,751.39L431.55,746.28C432.95,743.46 435.64,739.98 437.53,738.54C445.20,732.70 436.92,733.00 589.13,733.00L729.00,733.00L729.00,723.95C729.00,717.56 728.52,713.98 727.38,711.77C724.18,705.58 718.04,687.74 715.13,676.21C709.60,654.24 708.87,643.80 709.20,591.43L709.50,544.35L711.98,540.73C715.60,535.46 720.00,533.51 733.87,531.07C748.18,528.54 766.40,523.52 780.00,518.34C799.51,510.92 815.63,501.91 841.35,484.06C846.19,480.70 848.02,480.00 851.96,480.00C857.01,480.00 857.11,480.05 870.88,489.90C899.00,510.01 934.97,524.97 969.88,531.06C984.08,533.53 986.21,534.34 989.96,538.61C995.16,544.53 995.25,545.63 994.71,598.07C994.19,648.56 993.74,654.78 989.33,673.50C976.94,726.04 943.05,770.82 892.48,801.49C886.57,805.07 876.06,810.78 869.12,814.17C852.38,822.36 851.70,822.35 833.60,813.67C825.95,810.00 819.56,807.00 819.39,807.00C819.22,807.00 818.60,808.78 818.01,810.96C816.38,817.03 811.21,823.13 805.06,826.25L799.64,829.00L624.07,828.96C477.14,828.92 447.87,828.69 444.62,827.53ZM485.80,792.35C491.32,788.85 493.51,780.82 490.52,775.04C485.33,765.01 470.15,765.75 466.17,776.22C461.57,788.30 474.90,799.25 485.80,792.35ZM529.33,793.64C538.15,789.95 540.94,779.42 534.92,772.56C525.59,761.94 508.90,770.24 511.67,784.11C512.40,787.77 517.92,793.66 521.21,794.29C525.31,795.07 526.02,795.02 529.33,793.64ZM578.58,792.36C582.31,789.91 584.38,785.86 584.38,781.00C584.38,772.87 579.15,768.00 570.43,768.00C566.34,768.00 565.28,768.48 561.88,771.88C558.40,775.37 558.00,776.28 558.00,780.81C558.00,784.82 558.55,786.50 560.70,789.06C565.62,794.90 572.70,796.21 578.58,792.36ZM779.60,787.60C781.76,785.44 783.00,783.23 783.00,781.55C783.00,778.13 780.51,773.34 778.06,772.03C776.82,771.37 760.67,771.00 732.99,771.00L689.85,771.00L686.92,773.92C684.63,776.22 684.00,777.74 684.00,781.00C684.00,784.26 684.63,785.78 686.92,788.08L689.85,791.00L733.02,791.00L776.20,791.00L779.60,787.60ZM864.92,782.35C912.86,756.76 945.46,718.92 958.03,674.27C963.83,653.65 964.26,649.16 964.74,603.29L965.18,561.08L962.84,560.57C921.07,551.48 892.53,539.99 862.14,520.04C857.08,516.72 852.37,514.00 851.67,514.00C850.96,514.00 848.84,515.16 846.94,516.57C840.01,521.74 825.50,530.29 813.16,536.47C792.27,546.92 769.45,554.57 741.25,560.56L739.00,561.04L739.01,598.77C739.02,645.91 740.22,657.72 747.16,679.00C759.50,716.79 783.41,747.21 819.32,770.79C831.84,779.02 848.79,787.95 851.92,787.98C853.24,787.99 859.09,785.46 864.92,782.35ZM392.50,768.41C355.35,758.33 341.61,750.27 336.00,735.26C332.60,726.17 332.59,722.07 335.91,697.50C342.57,648.25 348.53,629.10 364.09,607.00C380.28,584.01 416.09,557.46 461.75,534.62C469.04,530.97 475.00,527.80 475.00,527.57C475.00,527.35 470.85,521.39 465.79,514.33C432.63,468.15 421.79,441.82 425.00,415.25C428.49,386.28 450.93,328.76 475.02,287.01C526.68,197.48 585.63,152.93 639.88,162.41C677.96,169.06 718.56,201.83 755.23,255.50C790.11,306.56 822.07,381.62 824.61,418.45C825.74,434.73 821.56,452.36 812.36,470.17L807.78,479.04L792.64,486.44C784.31,490.52 772.10,495.65 765.50,497.86C751.42,502.56 743.00,505.05 743.00,504.51C743.00,504.30 746.64,498.92 751.09,492.55C761.75,477.31 774.27,457.26 778.59,448.52C786.97,431.53 787.19,416.21 779.25,400.50C771.96,386.07 758.26,368.47 741.36,351.81C722.14,332.86 708.40,322.92 687.62,312.94C667.20,303.13 647.81,298.76 624.50,298.73C602.23,298.69 583.00,303.10 562.28,313.00C541.45,322.95 525.36,334.73 506.80,353.61C490.53,370.18 480.36,383.07 471.80,398.00C464.77,410.27 462.95,427.57 467.37,440.09C473.54,457.57 504.74,503.04 533.86,537.00C552.56,558.80 570.79,574.71 608.00,601.68C623.70,613.06 624.36,613.41 627.25,611.87C631.10,609.82 664.03,585.65 673.91,577.63C679.08,573.43 683.68,570.00 684.15,570.00C684.62,570.00 685.00,587.08 685.00,607.95C685.00,647.59 685.82,659.06 690.00,678.23C691.59,685.54 696.78,703.24 698.65,707.75C699.06,708.75 673.67,709.00 573.63,709.00C485.85,709.00 446.50,709.33 442.80,710.11C429.12,712.96 415.98,722.75 409.74,734.74C405.35,743.16 404.00,749.48 404.00,761.55C404.00,768.48 403.67,770.98 402.75,770.93C402.06,770.89 397.45,769.75 392.50,768.41ZM815.00,726.09C805.88,723.22 798.05,716.46 794.11,708.07L791.50,702.50L791.50,668.32C791.50,635.37 791.57,634.05 793.56,631.39C796.84,627.00 800.43,624.82 805.28,624.27L809.80,623.76L810.15,608.08L810.50,592.39L814.27,584.78C829.60,553.76 873.26,553.16 888.87,583.74C892.61,591.08 894.00,598.65 894.00,611.71L894.00,624.00L896.75,624.02C901.30,624.06 907.52,627.49 909.84,631.25C911.92,634.61 912.00,635.85 912.16,667.61C912.34,701.42 912.04,704.67 908.17,711.00C905.27,715.75 899.48,721.18 894.50,723.84L889.50,726.50L853.50,726.69C833.70,726.79 816.38,726.52 815.00,726.09ZM858.75,700.48C860.71,698.22 861.00,696.77 861.01,689.19C861.02,680.59 861.06,680.46 864.49,677.13C868.32,673.41 869.52,669.30 868.76,662.53C868.11,656.82 865.04,652.68 859.43,649.96C841.83,641.45 825.75,663.68 839.54,677.47C842.97,680.90 843.00,681.01 843.00,689.88C843.00,698.71 843.04,698.86 846.19,701.51C848.79,703.70 850.05,704.09 852.94,703.63C855.01,703.30 857.44,701.98 858.75,700.48ZM874.79,614.18C875.35,596.08 871.99,587.78 862.06,582.75C850.22,576.74 837.01,581.34 831.38,593.43C829.29,597.92 829.02,599.96 829.01,611.27L829.00,624.04L851.75,623.77L874.50,623.50L874.79,614.18ZM540.81,452.53C524.54,448.05 515.06,437.21 508.97,416.12C506.79,408.56 506.17,407.50 502.70,405.31C495.46,400.74 494.14,391.59 500.00,386.65C503.48,383.73 507.78,382.72 526.50,380.46C547.05,377.99 585.52,378.85 599.00,382.09C612.81,385.41 635.36,385.89 646.49,383.09C660.87,379.48 670.87,378.73 697.43,379.29C719.38,379.75 734.15,381.06 744.67,383.50C748.72,384.43 752.79,388.80 753.49,392.97C754.37,398.13 752.59,401.70 747.41,405.17C743.79,407.60 743.12,408.70 741.55,414.71C738.42,426.68 732.82,437.02 726.08,443.27C717.09,451.59 711.99,453.24 693.55,453.78C671.20,454.45 660.94,451.29 651.56,440.85C645.94,434.60 643.23,429.45 639.54,418.00C635.97,406.92 634.86,406.00 625.00,406.00C619.04,406.00 616.74,406.41 615.18,407.75C614.05,408.71 611.73,413.77 610.01,419.00C603.48,438.84 594.60,448.26 578.47,452.47C571.15,454.37 547.64,454.41 540.81,452.53Z" fill="#000" fill-rule="evenodd"/></svg>